<?xml version="1.0" encoding="UTF-8"?>
<svg width="110px" height="110px" viewBox="0 0 110 110" version="1.1" xmlns="http://www.w3.org/2000/svg" xmlns:xlink="http://www.w3.org/1999/xlink">
    <title>Four-Star Rating Badge</title>
    <g id="Page-1" stroke="none" stroke-width="1" fill="none" fill-rule="evenodd">
        <g id="Four-Star-Rating-Badge" transform="translate(0.001637, 0.000000)" fill-rule="nonzero">
            <path d="M102.734729,109.171169 C102.500959,109.171169 102.267381,109.157756 102.034984,109.132448 C70.7671298,105.79507 39.2328702,105.79507 7.9650156,109.132448 C7.73261926,109.157756 7.49904106,109.171169 7.26527133,109.171169 C5.44295688,109.166173 3.7077978,108.390526 2.4887561,107.035981 C1.2573952,105.680663 0.669805959,103.860446 0.876301911,102.040969 C4.2063024,70.772722 4.2063024,39.2392467 0.876301911,7.97099994 C0.668162041,6.14968031 1.25586169,4.32710576 2.4887561,2.97045591 C3.70680586,1.61386123 5.44210012,0.836143945 7.26527133,0.829736288 C7.49903852,0.829736288 7.73261206,0.843237794 7.9650156,0.868457315 C23.5884547,2.52734071 39.2887383,3.35823894 55,3.35766618 C70.7112617,3.35823894 86.4115453,2.52734071 102.034984,0.868457315 C102.267381,0.843149899 102.500959,0.829736288 102.734729,0.829736288 C104.560793,0.833798877 106.299556,1.61171944 107.519541,2.97045591 C108.750902,4.32577461 109.338491,6.14599101 109.131995,7.96546837 C105.801995,39.2337151 105.801995,70.7671904 109.131995,102.035437 C109.340135,103.856757 108.752436,105.679331 107.519541,107.035981 C106.298982,108.393244 104.560084,109.169214 102.734729,109.171169 Z" id="Path" fill="#FFFFFF"></path>
            <path d="M102.737494,1.65947258 C104.327572,1.66419729 105.841155,2.34259615 106.902771,3.52637923 C107.97493,4.70706182 108.48685,6.29219955 108.307791,7.87696316 C104.969476,39.2039382 104.969476,70.7969673 108.307791,102.123942 C108.489315,103.71147 107.977229,105.300144 106.902771,106.482824 C105.840301,107.667034 104.325696,108.34544 102.734729,108.34973 C102.530535,108.34973 102.326494,108.338554 102.12349,108.316541 C70.7968572,104.971782 39.2031428,104.971782 7.8765104,108.316541 C7.67350642,108.338554 7.46946537,108.34973 7.26527133,108.34973 C5.67430407,108.34544 4.15969919,107.667034 3.09722938,106.482824 C2.02506957,105.302141 1.51314969,103.717003 1.69220926,102.13224 C5.03052434,70.8052647 5.03052434,39.2122356 1.69220926,7.88526053 C1.51068523,6.2977333 2.02277054,4.70905918 3.09722938,3.52637923 C4.15969919,2.34216931 5.67430407,1.66376301 7.26527133,1.65947258 C7.46946537,1.65947258 7.67350642,1.67064843 7.8765104,1.69266203 C23.5289928,3.36076137 39.2588834,4.19812554 55,4.20123141 C70.7411166,4.19812554 86.4710072,3.36076137 102.12349,1.69266203 C102.326488,1.6705788 102.530533,1.65947258 102.734729,1.65947258 L102.734729,1.65947258 M102.734729,0 C102.471438,0 102.208333,0.014018982 101.946479,0.0414868144 L101.946479,0.0414868144 C86.352818,1.70253539 70.6818795,2.53344411 55,2.53069568 C39.3181205,2.53344411 23.647182,1.70253539 8.05352081,0.0414868144 L8.05352081,0.0414868144 C7.79166654,0.014018982 7.52856225,0 7.26527133,0 C5.20254633,0.00483812803 3.23863716,0.884221293 1.86130872,2.41974213 C0.483980279,3.95526296 -0.177544304,6.00285647 0.0410340475,8.05397357 L0.0410340475,8.05397357 C3.37379819,39.2629031 3.37379819,70.7380024 0.0410340475,101.946932 L0.0410340475,101.946932 C-0.177544304,103.998049 0.483980279,106.045643 1.86130872,107.581163 C3.23863716,109.116684 5.20254633,109.996067 7.26527133,110.000906 C7.52856225,110.000906 7.79166654,109.986887 8.05352081,109.959419 L8.05352081,109.959419 C39.2624012,106.625732 70.7375988,106.625732 101.946479,109.959419 L101.946479,109.959419 C102.208333,109.986887 102.471438,110.000906 102.734729,110.000906 C104.797454,109.996067 106.761363,109.116684 108.138691,107.581163 C109.51602,106.045643 110.177544,103.998049 109.958966,101.946932 L109.958966,101.946932 C106.626202,70.7380024 106.626202,39.2629031 109.958966,8.05397357 L109.958966,8.05397357 C110.177544,6.00285647 109.51602,3.95526296 108.138691,2.41974213 C106.761363,0.884221293 104.797454,0.00483812803 102.734729,0 Z" id="Shape" fill="#3F5DF5"></path>
            <rect id="Rectangle" fill="#3F5DF5" x="15.2749923" y="57.0526672" width="17.9859169" height="17.9859169" rx="7.49"></rect>
            <rect id="Rectangle" fill="#3F5DF5" x="35.763947" y="57.0526672" width="17.9859169" height="17.9859169" rx="7.49"></rect>
            <rect id="Rectangle" fill="#3F5DF5" x="56.250136" y="57.0526672" width="17.9859169" height="17.9859169" rx="7.49"></rect>
            <rect id="Rectangle" fill="#3F5DF5" x="76.736325" y="57.0526672" width="17.9859169" height="17.9859169" rx="7.49"></rect>
            <path d="M20.397231,65.676393 C20.2576504,65.8188284 20.2112742,66.0282725 20.2776778,66.216318 C20.3440814,66.4043636 20.5116937,66.5382429 20.709765,66.5614451 C22.3087327,66.7431328 23.5704437,68.0048437 23.7521314,69.6038114 C23.7794965,69.8673568 24.0016056,70.0675975 24.2665679,70.0675975 C24.5315302,70.0675975 24.7536393,69.8673568 24.7810044,69.6038114 C24.9626921,68.0048437 26.2244031,66.7431328 27.8233708,66.5614451 C27.9399331,66.549963 28.0491466,66.4992568 28.133139,66.4176241 C28.2727195,66.2751887 28.3190958,66.0657447 28.2526922,65.8776991 C28.1862886,65.6896535 28.0186763,65.5557742 27.820605,65.5325721 C26.2230489,65.3479602 24.9628504,64.0877618 24.7782386,62.4902057 C24.7508735,62.2266603 24.5287644,62.0264196 24.2638021,62.0264196 C23.9988398,62.0264196 23.7767307,62.2266603 23.7493656,62.4902057 C23.5676779,64.0891734 22.3059669,65.3508843 20.7069992,65.5325721 C20.5906102,65.5446858 20.4815941,65.5953004 20.397231,65.676393 L20.397231,65.676393 Z" id="Path" fill="#FFFFFF"></path>
            <path d="M40.8834199,65.676393 C40.7438394,65.8188284 40.6974631,66.0282725 40.7638667,66.216318 C40.8302703,66.4043636 40.9978826,66.5382429 41.1959539,66.5614451 C42.7949217,66.7431328 44.0566326,68.0048437 44.2383203,69.6038114 C44.2495041,69.7218245 44.3013168,69.832293 44.3849071,69.9163454 C44.5273425,70.055926 44.7367865,70.1023023 44.9248321,70.0358987 C45.1128777,69.9694951 45.246757,69.8018828 45.2699591,69.6038114 C45.4496847,68.0038985 46.7124125,66.7411707 48.3123255,66.5614451 C48.5758709,66.53408 48.7761116,66.3119708 48.7761116,66.0470086 C48.7761116,65.7820463 48.5758709,65.5599371 48.3123255,65.5325721 C46.7147694,65.3479602 45.4545709,64.0877618 45.2699591,62.4902057 C45.2609218,62.3721845 45.2098986,62.261307 45.1261382,62.1776717 C44.984349,62.0375541 44.7749344,61.9908317 44.5870335,62.0573922 C44.3991325,62.1239528 44.265824,62.2920786 44.2438519,62.4902057 C44.0602123,64.0882315 42.7995113,65.3489324 41.2014855,65.5325721 C41.0823418,65.5435121 40.9703277,65.5941619 40.8834199,65.676393 L40.8834199,65.676393 Z" id="Path" fill="#FFFFFF"></path>
            <path d="M61.3723747,65.676393 C61.2306986,65.8176221 61.1826053,66.0276045 61.2486901,66.2164181 C61.3147748,66.4052317 61.4833178,66.5393914 61.6821429,66.5614451 C63.279699,66.7460569 64.5398975,68.0062553 64.7245093,69.6038114 C64.7347142,69.7215265 64.7855618,69.8320224 64.8683303,69.9163454 C65.0107657,70.055926 65.2202097,70.1023023 65.4082553,70.0358987 C65.5963009,69.9694951 65.7301802,69.8018828 65.7533823,69.6038114 C65.93507,68.0048437 67.196781,66.7431328 68.7957487,66.5614451 C69.0592941,66.53408 69.2595347,66.3119708 69.2595347,66.0470086 C69.2595347,65.7820463 69.0592941,65.5599371 68.7957487,65.5325721 C67.1991295,65.3460234 65.939931,64.0868249 65.7533823,62.4902057 C65.7441593,62.3727891 65.6942766,62.2622648 65.6123271,62.1776717 C65.4698917,62.0380911 65.2604477,61.9917148 65.0724021,62.0581184 C64.8843565,62.124522 64.7504772,62.2921344 64.7272751,62.4902057 C64.5446102,64.088702 63.283405,65.3499071 61.6849087,65.5325721 C61.5675443,65.5440863 61.4574641,65.5947427 61.3723747,65.676393 Z" id="Path" fill="#FFFFFF"></path>
            <path d="M81.866861,65.676393 C81.7250174,65.8179977 81.6771898,66.0285207 81.7439273,66.2175118 C81.8106648,66.4065029 81.9800841,66.5403106 82.179395,66.5614451 C83.7783627,66.7431328 85.0400737,68.0048437 85.2217614,69.6038114 C85.2319663,69.7215265 85.2828139,69.8320224 85.3655824,69.9163454 C85.5080178,70.055926 85.7174618,70.1023023 85.9055074,70.0358987 C86.093553,69.9694951 86.2274323,69.8018828 86.2506344,69.6038114 C86.4323221,68.0048437 87.6940331,66.7431328 89.2930008,66.5614451 C89.5565462,66.53408 89.7567869,66.3119708 89.7567869,66.0470086 C89.7567869,65.7820463 89.5565462,65.5599371 89.2930008,65.5325721 C87.6954447,65.3479602 86.4352462,64.0877618 86.2506344,62.4902057 C86.2232693,62.2266603 86.0011602,62.0264196 85.7361979,62.0264196 C85.4712356,62.0264196 85.2491265,62.2266603 85.2217614,62.4902057 C85.0400737,64.0891734 83.7783627,65.3508843 82.179395,65.5325721 C82.0620306,65.5440863 81.9519504,65.5947427 81.866861,65.676393 L81.866861,65.676393 Z" id="Path" fill="#FFFFFF"></path>
            <path d="M20.3308521,26.8530321 C20.3093122,23.8021196 22.7563593,21.3068731 25.8071116,21.2688401 C27.4849373,21.2605553 29.0704787,22.0359362 30.0940824,23.3653739 L28.6531071,24.4716889 C27.9984926,23.5823402 26.9584122,23.0592168 25.85413,23.063903 C23.8046813,23.063903 22.2586061,24.8008177 22.2586061,26.8640952 C22.2586061,28.9273728 23.7770235,30.6504585 25.85413,30.6504585 C26.9584122,30.6551447 27.9984926,30.1320213 28.6531071,29.2426726 L30.0940824,30.3489876 C29.0704787,31.6784253 27.4849373,32.4538062 25.8071116,32.4455214 C24.3390548,32.430863 22.9370164,31.8332658 21.9098436,30.7843045 C20.8826708,29.7353433 20.3146301,28.3210718 20.3308521,26.8530321 L20.3308521,26.8530321 Z" id="Path" fill="#011936"></path>
            <path d="M38.3001743,28.1363575 L38.3001743,32.2352548 L36.4858176,32.2352548 L36.4858176,28.260818 C36.4858176,27.088124 35.7805418,26.463056 34.9674002,26.463056 C34.1542586,26.463056 33.1060251,26.9470689 33.1060251,28.3714495 L33.1060251,32.2435522 L31.2916685,32.2435522 L31.2916685,20.9563729 L33.1060251,20.9563729 L33.1060251,26.0398905 C33.4655775,25.1493069 34.6410373,24.7427361 35.373971,24.7427361 C37.2519408,24.7427361 38.3001743,25.9984037 38.3001743,28.1363575 Z" id="Path" fill="#011936"></path>
            <path d="M45.7512062,24.9280439 L47.5710944,24.9280439 L47.5710944,32.2352548 L45.7567377,32.2352548 L45.7567377,31.0929845 C45.2072982,31.9309648 44.2695354,32.4321469 43.2675289,32.4233284 C41.312117,32.4233284 39.749447,30.8412978 39.749447,28.573352 C39.749447,26.3607219 41.2512697,24.7427361 43.3145473,24.7427361 C44.3157624,24.7427361 45.2865539,25.1797306 45.7705667,25.9458537 L45.7512062,24.9280439 Z M45.7207825,28.573352 C45.7223954,27.4007055 44.7802705,26.4450159 43.6077208,26.4298666 C42.4617886,26.4922486 41.5658784,27.4419174 41.5702873,28.5895377 C41.5747289,29.737158 42.4779363,30.6798894 43.6243155,30.7334321 C44.7988037,30.713727 45.7361833,29.7479046 45.7207825,28.573352 L45.7207825,28.573352 Z" id="Shape" fill="#011936"></path>
            <path d="M54.3555715,24.991657 L53.9960191,26.7119769 C53.6688233,26.5346289 53.3033345,26.4396968 52.9311909,26.4353981 C51.744668,26.4353981 51.0864105,27.6246868 51.0864105,29.6741355 L51.0864105,32.2241917 L49.2554591,32.2241917 L49.2554591,24.9280439 L51.0698158,24.9280439 L51.0698158,26.4934797 C51.4625576,25.2737673 52.2591045,24.7427361 53.1662828,24.7427361 C53.5764868,24.7341543 53.9832407,24.8192888 54.3555715,24.991657 L54.3555715,24.991657 Z" id="Path" fill="#011936"></path>
            <path d="M55.0968026,22.347564 C55.1061427,22.0425749 55.2371191,21.7540005 55.4605328,21.5461738 C55.6839465,21.3383472 55.9812237,21.2285461 56.2860912,21.241249 C56.5908262,21.2229314 56.8895856,21.3313515 57.1116479,21.5408442 C57.3337103,21.750337 57.4593352,22.0422796 57.458787,22.347564 C57.4523226,22.6505657 57.3245443,22.9383021 57.1040927,23.1462753 C56.8836411,23.3542485 56.5889554,23.4650631 56.2860912,23.4538791 C55.6537411,23.4726156 55.1237674,22.9796168 55.0968026,22.347564 Z M55.3733813,32.2352548 L55.3733813,24.9280439 L57.187738,24.9280439 L57.187738,32.2352548 L55.3733813,32.2352548 Z" id="Shape" fill="#011936"></path>
            <polygon id="Path" fill="#011936" points="63.0235499 24.9280439 63.0235499 26.3690192 61.4747088 26.3690192 61.4747088 32.2352548 59.6603522 32.2352548 59.6603522 26.3690192 58.3576662 26.3690192 58.3576662 24.9280439 59.6714153 24.9280439 59.6714153 22.2396983 61.485772 22.2396983 61.485772 24.9280439"></polygon>
            <polygon id="Path" fill="#011936" points="69.4540061 24.9280439 71.409418 24.9280439 66.8735263 35.8003551 64.9651328 35.8003551 66.6080107 31.7180525 63.6984021 24.9280439 65.6842376 24.9280439 67.5760363 29.5607382"></polygon>
            <polygon id="Path" fill="#011936" points="27.2148975 35.1255029 29.123291 35.1255029 29.123291 45.9120746 27.3808447 45.9120746 23.0855766 38.6408189 23.0855766 45.9120746 21.1771831 45.9120746 21.1771831 35.1255029 22.9749451 35.1255029 27.2148975 42.3165507"></polygon>
            <path d="M36.8509016,38.5938006 L38.6652583,38.5938006 L38.6652583,45.9120746 L36.8509016,45.9120746 L36.8509016,44.7698043 C36.2988051,45.6119507 35.3547587,46.1137036 34.3478638,46.1001482 C32.3924519,46.1001482 30.8297819,44.5181177 30.8297819,42.2501718 C30.8297819,40.0375417 32.3316046,38.4195559 34.3948822,38.4195559 C35.3960973,38.4195559 36.3668888,38.8565504 36.8509016,39.6226736 L36.8509016,38.5938006 Z M36.8204779,42.2363429 C36.8220908,41.0636964 35.8799659,40.1080068 34.7074162,40.0928575 C33.561484,40.1552395 32.6655738,41.1049083 32.6699828,42.2525286 C32.6744243,43.4001489 33.5776317,44.3428802 34.7240109,44.396423 C35.8991527,44.3782289 36.8374085,43.4115036 36.8204779,42.2363429 L36.8204779,42.2363429 Z" id="Shape" fill="#011936"></path>
            <polygon id="Path" fill="#011936" points="45.5161142 38.5938006 47.4881208 38.5938006 44.4070334 45.9120746 42.7475608 45.9120746 39.7051944 38.6076295 41.6606063 38.6076295 43.5966576 43.6109393"></polygon>
            <path d="M48.2293519,36.0105549 C48.2394283,35.7058188 48.3706282,35.4176863 48.5938739,35.2100159 C48.8171196,35.0023455 49.1139722,34.8922896 49.4186406,34.9042399 C50.0296415,34.9042399 50.5249556,35.399554 50.5249556,36.0105549 C50.5249556,36.6215558 50.0296415,37.11687 49.4186406,37.11687 C48.7857202,37.1371247 48.2548436,36.643286 48.2293519,36.0105549 L48.2293519,36.0105549 Z M48.5059306,45.8982457 L48.5059306,38.5938006 L50.3368821,38.5938006 L50.3368821,45.9120746 L48.5059306,45.8982457 Z" id="Shape" fill="#011936"></path>
            <path d="M57.8183376,38.5938006 L59.6326943,38.5938006 L59.6326943,44.9551121 C59.6326943,48.2408678 58.0368348,49.6569511 55.533797,49.6569511 C54.0669962,49.6764024 52.7205559,48.8480724 52.0765625,47.5300604 L53.5783852,46.8413793 C53.9680897,47.559116 54.7171071,48.0083145 55.533797,48.0140732 C56.9415829,48.0140732 57.8183376,47.2175264 57.8183376,45.1210594 L57.8183376,44.9495805 C57.3011353,45.699109 56.2860912,46.0918508 55.3927418,46.0918508 C53.4566905,46.0918508 51.7972179,44.5734334 51.7972179,42.2418744 C51.7972179,39.9103155 53.4566905,38.4112586 55.3789129,38.4112586 C56.3192807,38.4112586 57.3149642,38.8012346 57.8211034,39.5535289 L57.8183376,38.5938006 Z M57.7879139,42.2225139 C57.7894606,41.0521655 56.8451769,40.100466 55.6748522,40.0928575 C55.118586,40.0970613 54.5875181,40.3254047 54.2017877,40.7262311 C53.8160574,41.1270575 53.6082598,41.6664961 53.6254035,42.2225139 C53.5976334,42.98417 53.9881328,43.7001605 54.6435067,44.0892316 C55.2988806,44.4783027 56.1144369,44.4783027 56.7698108,44.0892316 C57.4251846,43.7001605 57.8156841,42.98417 57.7879139,42.2225139 L57.7879139,42.2225139 Z" id="Shape" fill="#011936"></path>
            <path d="M67.0643656,38.5938006 L68.8676592,38.5938006 L68.8676592,45.9120746 L67.0533025,45.9120746 L67.0533025,44.7698043 C66.5035058,45.6073939 65.5659737,46.1084527 64.5640936,46.1001482 C62.6086818,46.1001482 61.043246,44.5181177 61.043246,42.2501718 C61.043246,40.0375417 62.5450686,38.4195559 64.611112,38.4195559 C65.6123271,38.4195559 66.5803528,38.8565504 67.0671314,39.6226736 L67.0643656,38.5938006 Z M67.0311762,42.2363429 C67.0328082,41.0647593 66.0923466,40.1095067 64.9208802,40.0928575 C63.7749483,40.1545524 62.8784846,41.103628 62.8821609,42.2512136 C62.8858598,43.3987991 63.7884044,44.3420938 64.9347092,44.396423 C66.109851,44.3782289 67.0481068,43.4115036 67.0311762,42.2363429 L67.0311762,42.2363429 Z" id="Shape" fill="#011936"></path>
            <polygon id="Path" fill="#011936" points="74.7615526 38.5938006 74.7615526 40.0320101 73.2127115 40.0320101 73.2127115 45.9120746 71.3983548 45.9120746 71.3983548 40.0320101 70.0846057 40.0320101 70.0846057 38.5938006 71.3983548 38.5938006 71.3983548 35.9026892 73.2127115 35.9026892 73.2127115 38.5938006"></polygon>
            <path d="M75.4004495,42.2363429 C75.4004495,39.9213786 77.2009773,38.405727 79.2725522,38.405727 C81.3441272,38.405727 83.1667812,39.9213786 83.1667812,42.2363429 C83.1667812,44.5513071 81.3524245,46.0863192 79.2725522,46.0863192 C78.242443,46.1098013 77.2472522,45.7124588 76.5165811,44.985963 C75.78591,44.2594672 75.382871,43.2665697 75.4004495,42.2363429 L75.4004495,42.2363429 Z M81.3441272,42.2363429 C81.2883148,41.115624 80.3449087,40.2462423 79.2233706,40.2819914 C78.1018325,40.3177406 77.2157085,41.2454387 77.2313829,42.367437 C77.2470573,43.4894352 78.1587505,44.3920177 79.2808496,44.396423 C79.844508,44.3946801 80.3831195,44.1633289 80.7724503,43.7557319 C81.1617811,43.3481349 81.3682115,42.7994892 81.3441272,42.2363429 Z" id="Shape" fill="#011936"></path>
            <path d="M89.6663821,38.6546479 L89.3068297,40.3804994 C88.9806241,40.2031687 88.6160323,40.1082229 88.2447673,40.1039206 C87.0554786,40.1039206 86.3972212,41.2932093 86.3972212,43.3426579 L86.3972212,45.9120746 L84.5690355,45.9120746 L84.5690355,38.5938006 L86.3833922,38.5938006 L86.3833922,40.1564706 C86.7733683,38.9367582 87.5726809,38.405727 88.4798592,38.405727 C88.8891791,38.3970789 89.2950488,38.4822264 89.6663821,38.6546479 Z" id="Path" fill="#011936"></path>
            <circle id="Oval" fill="#011936" cx="88.4881566" cy="25.7190592" r="1.1395045"></circle>
            <circle id="Oval" fill="#011936" cx="82.9040314" cy="31.3059502" r="1.1395045"></circle>
            <circle id="Oval" fill="#011936" cx="77.3199062" cy="25.7190592" r="1.1395045"></circle>
            <path d="M78.9904419,19.7615526 C78.8500661,19.9054838 78.8035607,20.1166206 78.8704745,20.3062099 C78.9373884,20.4957991 79.10612,20.6309699 79.3057417,20.654902 C80.9239655,20.8379917 82.2009737,22.1149998 82.3840633,23.7332236 C82.3914056,23.857077 82.4435,23.9740436 82.53065,24.0623524 C82.6745812,24.2027281 82.8857181,24.2492336 83.0753073,24.1823197 C83.2648965,24.1154059 83.4000673,23.9466742 83.4239995,23.7470526 C83.6048723,22.1287964 84.8814623,20.8510583 86.4995553,20.6687309 C86.6180671,20.658476 86.7294216,20.6076827 86.8148551,20.52491 C86.9574733,20.3817983 87.0054143,20.1695945 86.9381707,19.979071 C86.8709271,19.7885475 86.7004082,19.6534471 86.4995553,19.6315606 C84.8783111,19.4450297 83.6018035,18.1616344 83.4239995,16.53941 C83.412767,16.4206027 83.3610092,16.3092747 83.2774127,16.2241102 C83.1334815,16.0837345 82.9223447,16.037229 82.7327554,16.1041429 C82.5431662,16.1710567 82.4079954,16.3397884 82.3840633,16.53941 C82.2002491,18.1562504 80.925182,19.4324641 79.3085075,19.6177316 C79.1888454,19.626674 79.0761921,19.6776129 78.9904419,19.7615526 Z" id="Path" fill="#011936"></path>
            <polygon id="Path" fill="#011936" points="36.9615331 87.0172103 34.748903 87.0172103 34.748903 88.3033016 36.5079439 88.3033016 36.5079439 89.2464352 34.7433714 89.2464352 34.7433714 91.4009837 33.6647142 91.4009837 33.6647142 86.0630136 36.9642989 86.0630136"></polygon>
            <path d="M37.5589432,88.7347645 C37.5863342,87.2408259 38.8153091,86.0495821 40.3093755,86.068774 C41.8034419,86.0879658 43.0014124,87.3103847 42.9904202,88.8045339 C42.9794281,90.2986831 41.7636021,91.5033442 40.2694151,91.5005569 C39.5425078,91.4954599 38.8476523,91.2006537 38.3388566,90.6814744 C37.8300609,90.1622951 37.5493509,89.4616263 37.5589432,88.7347645 Z M41.9039956,88.7347645 C41.8468324,87.8460594 41.0898658,87.1659978 40.2001359,87.2040105 C39.310406,87.2420233 38.6142017,87.98417 38.6330463,88.8745121 C38.6518909,89.7648543 39.3788736,90.4768784 40.2694151,90.4772107 C40.7199589,90.4710176 41.1486153,90.2818816 41.456894,89.9532598 C41.7651726,89.6246379 41.9265675,89.1847851 41.9039956,88.7347645 L41.9039956,88.7347645 Z" id="Shape" fill="#011936"></path>
            <path d="M44.0889678,89.5174824 L44.0889678,86.0630136 L45.1648592,86.0630136 L45.1648592,89.4483377 C45.1648592,90.1757398 45.6295115,90.4716791 46.1245875,90.4716791 C46.395727,90.4872761 46.6599276,90.3824078 46.8465627,90.1851079 C47.0331978,89.987808 47.1232378,89.7181932 47.0926132,89.4483377 L47.0926132,86.0630136 L48.1685046,86.0630136 L48.1685046,89.5174824 C48.1685046,90.7427263 47.2170736,91.4922547 46.1245875,91.4922547 C45.5872952,91.5200463 45.0626681,91.32301 44.6765095,90.9483942 C44.290351,90.5737785 44.0774893,90.0553705 44.0889678,89.5174824 L44.0889678,89.5174824 Z" id="Path" fill="#011936"></path>
            <path d="M52.3282492,91.4009837 L51.0559868,89.4870587 L50.6936687,89.4870587 L50.6936687,91.4009837 L49.6177773,91.4009837 L49.6177773,86.0630136 L51.7474337,86.0630136 C52.9699119,86.0630136 53.4954115,86.9314709 53.4954115,87.8054598 C53.5039852,88.5838833 52.970306,89.2636342 52.2120861,89.4400403 L53.5949799,91.4009837 L52.3282492,91.4009837 Z M50.6936687,87.0172103 L50.6936687,88.6186014 L51.5538286,88.6186014 C52.1567703,88.6186014 52.4112228,88.2562832 52.4112228,87.8303519 C52.426026,87.6172638 52.3505446,87.4077719 52.2032331,87.2530948 C52.0559216,87.0984178 51.8503586,87.0128131 51.6368022,87.0172103 L50.6936687,87.0172103 Z" id="Shape" fill="#011936"></path>
            <polygon id="Path" fill="#011936" points="54.4855635 89.3874903 54.4855635 88.480312 57.2209275 88.480312 57.2209275 89.3874903"></polygon>
            <path d="M58.216611,89.8521427 L59.2952682,89.8521427 C59.2952682,90.2310556 59.6741811,90.5491211 60.1692571,90.5491211 C60.6643331,90.5491211 60.9658039,90.2725424 60.9658039,89.9046926 C60.9658039,89.6115191 60.7500725,89.4013193 60.2937175,89.2630299 L59.6437574,89.0777221 C58.4738293,88.7679539 58.2608636,88.0626781 58.2608636,87.581431 C58.2608636,86.6300001 59.0905999,85.9717426 60.105644,85.9717426 C61.120688,85.9717426 61.8868112,86.5829817 61.8868112,87.5980257 L60.808154,87.5980257 C60.8121909,87.4084667 60.7349741,87.2262291 60.5959785,87.097275 C60.4569829,86.9683209 60.2694771,86.9049604 60.0807519,86.9231736 C59.89838,86.9079478 59.7175638,86.9668316 59.5791306,87.0865295 C59.4406974,87.2062273 59.3563207,87.3766456 59.3450524,87.5593047 C59.3450524,87.6892967 59.3837734,87.9603439 59.9424625,88.1124622 L60.5371068,88.2839411 C61.3447168,88.5245646 62.0472269,88.9339012 62.0472269,89.8410795 C62.0472269,90.9003762 61.1428143,91.4811916 60.1360676,91.4811916 C58.9993289,91.4922547 58.216611,90.7869789 58.216611,89.8521427 Z" id="Path" fill="#011936"></path>
            <polygon id="Path" fill="#011936" points="66.7048132 86.0630136 66.7048132 87.0172103 65.2334142 87.0172103 65.2334142 91.4009837 64.1658202 91.4009837 64.1658202 87.0172103 62.6944212 87.0172103 62.6944212 86.0630136"></polygon>
            <path d="M70.549258,91.4009837 L70.1150294,90.1231899 L68.1153649,90.1231899 L67.6894336,91.4009837 L66.5443976,91.4009837 L68.5357647,86.0630136 L69.6973955,86.0630136 L71.6776994,91.4009837 L70.549258,91.4009837 Z M68.4334305,89.1883536 L69.7969638,89.1883536 L69.1165801,87.1665629 L68.4334305,89.1883536 Z" id="Shape" fill="#011936"></path>
            <path d="M75.212376,91.4009837 L73.9428795,89.4870587 L73.5694981,89.4870587 L73.5694981,91.4009837 L72.4936067,91.4009837 L72.4936067,86.0630136 L74.6232632,86.0630136 C75.8457414,86.0630136 76.3740068,86.9314709 76.3740068,87.8054598 C76.3822893,88.5847079 75.8472358,89.2647436 75.0879155,89.4400403 L76.4708094,91.4009837 L75.212376,91.4009837 Z M73.5694981,87.0172103 L73.5694981,88.6186014 L74.4296581,88.6186014 C75.0325998,88.6186014 75.289818,88.2562832 75.289818,87.8303519 C75.3046212,87.6172638 75.2291399,87.4077719 75.0818284,87.2530948 C74.9345169,87.0984178 74.7289539,87.0128131 74.5153975,87.0172103 L73.5694981,87.0172103 Z" id="Shape" fill="#011936"></path>
            <path d="M22.0815957,88.4222305 C22.0028472,88.5029052 21.9767757,88.6213147 22.0143584,88.7276034 C22.0519411,88.8338921 22.1466491,88.909595 22.2586061,88.922838 C23.165729,89.0193667 23.8823973,89.736035 23.978926,90.6431579 C23.9841139,90.7102946 24.0136161,90.7732327 24.0618996,90.8201683 C24.1419279,90.8994562 24.2603098,90.9258749 24.3664547,90.8881344 C24.4725997,90.850394 24.547731,90.7551706 24.5597414,90.6431579 C24.6069218,90.2051892 24.8020461,89.7964037 25.1128989,89.4842929 C25.4257286,89.1728753 25.8355827,88.9777066 26.2745297,88.9311354 C26.3403197,88.9260413 26.4021206,88.8975933 26.4487743,88.8509275 C26.5298077,88.7710948 26.5573468,88.6515933 26.5194256,88.5443474 C26.4815044,88.4371016 26.3849687,88.3614719 26.2717639,88.35032 C25.3693779,88.2439484 24.6578156,87.5323861 24.551444,86.6300001 C24.551444,86.4696123 24.421424,86.3395924 24.2610363,86.3395924 C24.1006486,86.3395924 23.9706286,86.4696123 23.9706286,86.6300001 C23.8681399,87.5342629 23.1545715,88.2478313 22.2503087,88.35032 C22.1878278,88.3556305 22.1286958,88.3808343 22.0815957,88.4222305 Z" id="Path" fill="#011936"></path>
            <path d="M83.5429283,88.4222305 C83.4643249,88.5025265 83.4379762,88.6204116 83.4749132,88.7265323 C83.5118503,88.8326531 83.6057005,88.908701 83.7171729,88.922838 C84.6220415,89.0251054 85.3365378,89.7384549 85.4402586,90.6431579 C85.4402586,90.8035457 85.5702786,90.9335656 85.7306663,90.9335656 C85.8910541,90.9335656 86.021074,90.8035457 86.021074,90.6431579 C86.1245401,89.7393665 86.8376025,89.0263041 87.7413939,88.922838 C87.8076334,88.9163739 87.869872,88.888172 87.9184043,88.8426302 C87.9971528,88.7619554 88.0232243,88.6435459 87.9856416,88.5372572 C87.9480589,88.4309686 87.8533509,88.3552656 87.7413939,88.3420226 C87.3030522,88.2933168 86.8938684,88.0984674 86.5797631,87.7888651 C86.2689104,87.4767543 86.0737861,87.0679688 86.0266056,86.6300001 C86.0266056,86.4696123 85.8965857,86.3395924 85.7361979,86.3395924 C85.5758102,86.3395924 85.4457902,86.4696123 85.4457902,86.6300001 C85.3433015,87.5342629 84.6297331,88.2478313 83.7254703,88.35032 C83.6581701,88.3526147 83.5937113,88.3780075 83.5429283,88.4222305 L83.5429283,88.4222305 Z" id="Path" fill="#011936"></path>
        </g>
    </g>
</svg>